# xmcd CD database file
#
# Track frame offsets:
#	150
#	14867
#	30801
#	46245
#	66652
#	80212
#	93741
#	109128
#	122318
#	139141
#	153695
#	171433
#	187828
#	203777
#	220192
#	236595
#	253577
#	268529
#	294250
#	323698
#
# Disc length: 4681 seconds
#
# Revision: 0
# Processed by: cddbd v1.5.2PL0 Copyright (c) Steve Scherf et al.
# Submitted via: CDex 1.70beta2
#
DISCID=24124714
DTITLE=Various Artist - I love Jazz [CD5 New Jazz)
DYEAR=1900
DGENRE=Jazz
TTITLE0=Slow Train - In the black of the night
TTITLE1=Belleruche - Minor swing
TTITLE2=Quantic feat. Spanky Wilson - don't joke with a hungry man
TTITLE3=Sophie Faricy and TM Juke - Come away
TTITLE4=Waldeck - Memories
TTITLE5=Chin Chin - You can't hold her
TTITLE6=Kinny and Horne - Why me
TTITLE7=Jumbonics - Sandy
TTITLE8=Diesler - A little something
TTITLE9=Koop - I see a different you
TTITLE10=The Bamboos - Happy
TTITLE11=Tok Tok Tok feat. Tokunbo Akinro - Get away
TTITLE12=Splenger - Good thing
TTITLE13=Beady Belle - Game
TTITLE14=The Cinematic Orchestra feat. Fontella Bass - Evolution
TTITLE15=Ursula Rucker - Black Erotica
TTITLE16=Musica Nuda feat. Erik Truffaz - Take a bow
TTITLE17=Sesong (Thomas Dybdahl and Britt Synnove Johannsen) - Love untold
TTITLE18=Laurent De Wilde - The present
TTITLE19=Antoine Herve - Summertime
EXTD=
EXTT0=
EXTT1=
EXTT2=
EXTT3=
EXTT4=
EXTT5=
EXTT6=
EXTT7=
EXTT8=
EXTT9=
EXTT10=
EXTT11=
EXTT12=
EXTT13=
EXTT14=
EXTT15=
EXTT16=
EXTT17=
EXTT18=
EXTT19=
PLAYORDER=
